<?xml version="1.0" encoding="utf-8"?>
<!-- Generator: Adobe Illustrator 21.0.0, SVG Export Plug-In . SVG Version: 6.00 Build 0)  -->
<svg version="1.1" id="OBJECTS" xmlns="http://www.w3.org/2000/svg" xmlns:xlink="http://www.w3.org/1999/xlink" x="0px" y="0px"
	 viewBox="0 0 500 500" style="enable-background:new 0 0 500 500;" xml:space="preserve">
<style type="text/css">
	.st0{fill-rule:evenodd;clip-rule:evenodd;fill:#953D23;stroke:#231815;stroke-width:0.5669;stroke-miterlimit:22.9256;}
	.st1{fill-rule:evenodd;clip-rule:evenodd;fill:#CEACCA;}
	.st2{fill-rule:evenodd;clip-rule:evenodd;fill:#F6C085;}
	.st3{fill-rule:evenodd;clip-rule:evenodd;fill:#D8B3D2;}
	.st4{fill-rule:evenodd;clip-rule:evenodd;fill:#F8C997;}
	.st5{fill-rule:evenodd;clip-rule:evenodd;fill:#CC5827;}
	.st6{fill-rule:evenodd;clip-rule:evenodd;fill:#3E3B3A;}
	.st7{fill-rule:evenodd;clip-rule:evenodd;fill:#D6825B;}
	.st8{fill-rule:evenodd;clip-rule:evenodd;fill:#E5B17D;}
</style>
<g>
	<path class="st0" d="M370.2,251.8c-1.2,12.6-45.7,106.5-45.7,106.5l-106.3-2.1c0,0-66.5-48.6-71.3-84.6c-4.8-36-2.1-69.6-2.1-69.6
		l223.9-5.5L370.2,251.8z"/>
	<path class="st1" d="M325.1,431c2.4-1.8,34.4-64.8,34.4-64.8c23.9,7.9,30.8,75.6,33.2,107.1h-57L325.1,431z"/>
	<path class="st2" d="M256.1,321.6H231v15.9c0,18.8-50.1,20.6-67,26c4.6,39.3,41,68.1,94.7,104.8h6.5h6.5
		c21.9-32.5,76.8-52.3,78.1-104.8c-17.2-5.5-68.4-6.9-68.4-26v-15.9H256.1z"/>
	<path class="st1" d="M190.3,423.8c-2.4-1.8-36.2-57.6-36.2-57.6c-23.9,7.9-30.8,75.6-33.2,107.1h57L190.3,423.8z"/>
	<path class="st3" d="M163.9,363.4c-6.1,1.4-10.6,2.8-12.1,4c27.2,51.7-13,72.5,1.8,105.9h102.4h0.7h0.7h102.4
		c14.8-33.4-25.4-54.2,1.8-105.9c-1.4-1.3-6-2.6-12.1-4c-6.7,34.4-45.7,60.7-92.9,60.7C209.7,424.1,170.6,397.8,163.9,363.4z"/>
	<path class="st4" d="M258.9,44.9l-0.3,0c-7.5-0.3-14.8-0.6-14.8-0.6l0,1.2c-1,0-1.6,0.1-1.6,0.1c-30,1.2-58.3,17.4-76.5,42
		c-18.2,24.7-20.6,55.7-19.1,85.5c3.7,76.5,46.5,162.3,112.3,162.9c65.7-0.6,108.6-86.5,112.3-162.9c1.4-29.8-1-60.8-19.1-85.5
		c-18.1-24.6-46.4-40.8-76.5-42c0,0-0.6,0-1.6-0.1l0-1.2c0,0-7.3,0.3-14.8,0.6L258.9,44.9z"/>
	<path class="st5" d="M337.3,185.2c5.2,2.1-3.4-11.8-28.7-12.4c-29.5-0.6-38.5,13.6-26.9,9.5C306.8,173.5,329.1,181.8,337.3,185.2z"
		/>
	<path class="st6" d="M210.1,212.7c4.8,0,8.7-3.9,8.7-8.7c0-4.8-3.9-8.7-8.7-8.7c-4.8,0-8.7,3.9-8.7,8.7
		C201.4,208.8,205.3,212.7,210.1,212.7z"/>
	<path class="st6" d="M308.2,212.7c4.8,0,8.7-3.9,8.7-8.7c0-4.8-3.9-8.7-8.7-8.7c-4.8,0-8.7,3.9-8.7,8.7
		C299.5,208.8,303.4,212.7,308.2,212.7z"/>
	<path class="st7" d="M224.6,274.5c21.2,11.4,45.7,11.4,66.9,0C286.3,308.4,230.3,307.3,224.6,274.5z"/>
	<path class="st8" d="M239.3,256.1c-0.1,0-0.1-0.1,0-0.3c0-0.4,0.2-0.9,0.7-1.3c3.6-6.9,10.6-26.9,13.8-49
		c3.5,0.2-3.5,37.6-6.5,46.5c3.1-0.5,6.8-0.8,10.8-0.8c10.4,0,18.8,2.1,18.8,4.7c0,2.6-8.4,4.6-18.8,4.6
		C248,260.4,239.8,258.5,239.3,256.1z"/>
	<path class="st5" d="M179,185.4c-5.2,2.1,3.4-11.8,28.7-12.4c29.5-0.6,38.5,13.6,26.9,9.5C209.5,173.7,187.2,182,179,185.4z"/>
	<path class="st5" d="M179.1,72.7c41,24.2,165.2,64.8,161.5,185.5c0,0,8.7-48.3,9-46.1c0.3,2.3,6.3,32.1-2.7,76.3
		c-9,44.2-45.6,95.8-44.1,93.6c1.5-2.3,39.9-20.9,62.4-72.4c65.4-149.6,13.3-311.1-142-278.7C189.9,37.8,164.3,64,179.1,72.7z"/>
	<path class="st5" d="M224.6,87.3c-86.1,45.5-51.6,202.6-17.3,255.3c16.4,25.2,33.2,41.6,27.3,36.6c-5.9-5-48.4-1.7-93.8-87.5
		c-36.5-69-48.6-242.2,64.8-242.2L224.6,87.3z"/>
	<path class="st5" d="M143.6,136.6c4.8-4.2,28.2-32.1,28.2-32.1c-22.5,94.5,19,173.7,18.9,173.4C155.9,218.3,151,204.6,143.6,136.6z
		"/>
</g>
</svg>
