<?xml version="1.0" encoding="utf-8"?>
<!-- Generator: Adobe Illustrator 21.0.0, SVG Export Plug-In . SVG Version: 6.00 Build 0)  -->
<svg version="1.1" id="OBJECTS" xmlns="http://www.w3.org/2000/svg" xmlns:xlink="http://www.w3.org/1999/xlink" x="0px" y="0px"
	 viewBox="0 0 500 500" style="enable-background:new 0 0 500 500;" xml:space="preserve">
<style type="text/css">
	.st0{fill-rule:evenodd;clip-rule:evenodd;fill:#7D7873;}
	.st1{fill-rule:evenodd;clip-rule:evenodd;fill:#7F7A77;}
	.st2{fill-rule:evenodd;clip-rule:evenodd;fill:#F5B67E;}
	.st3{fill-rule:evenodd;clip-rule:evenodd;fill:#857E79;}
	.st4{fill-rule:evenodd;clip-rule:evenodd;fill:#F6C085;}
	.st5{fill-rule:evenodd;clip-rule:evenodd;fill:#F8C997;}
	.st6{fill-rule:evenodd;clip-rule:evenodd;fill:#402412;}
	.st7{fill-rule:evenodd;clip-rule:evenodd;fill:#756E6A;}
	.st8{fill-rule:evenodd;clip-rule:evenodd;fill:#9F9993;}
	.st9{fill-rule:evenodd;clip-rule:evenodd;fill:#3E3B3A;}
	.st10{fill-rule:evenodd;clip-rule:evenodd;fill:#5A5858;}
	.st11{fill-rule:evenodd;clip-rule:evenodd;fill:#D6825B;}
	.st12{fill-rule:evenodd;clip-rule:evenodd;fill:#E5B17D;}
</style>
<g>
	<polygon class="st0" points="212.7,366.3 212,343.8 282.9,343.8 282.3,365.6 	"/>
	<path class="st1" d="M200.1,412.5c-2.3-1.7-52.8-25.5-52.8-25.5c-22.5,7.4-27.5,57.9-29.8,87.6h53.7L200.1,412.5z"/>
	<path class="st1" d="M289.7,412.5c2.3-1.7,52.8-25.5,52.8-25.5c22.5,7.4,27.5,57.9,29.8,87.6h-53.7L289.7,412.5z"/>
	<path class="st2" d="M244.9,331.7h-23.7v15c0,9.3-1.5,7.4-10.2,12.2c0,0-8.4,6.9-10.9,7.7c10.5,33.9,18.2,77.5,38.7,108.1h6.1h6.1
		c20.6-30.6,28.2-74.2,38.7-108.1c-2.6-0.8-10.9-7.7-10.9-7.7c-8.7-4.8-10.2-2.9-10.2-12.2v-15H244.9z"/>
	<path class="st3" d="M247,414.1c0,0-7.4-9.8-10.8-15.3C225.9,382,211.3,359.2,211,359c-12.6,5.8-58.7,23.8-63.9,28.3
		c4.2,9.2,10.5,46.9,16,87.4h81.8h81.8c5.5-40.5,11.8-78.3,16-87.4c-5.2-4.5-51.2-22.5-63.9-28.3c-0.3,0.2-9.5,23.7-20.1,39.8
		C254.4,405.4,247,414.1,247,414.1z"/>
	<path class="st4" d="M308.3,226.1c-3.4,19.3,8,35.3,25.5,38.8c17.5,3.5,34.4-7,37.8-26.3c3.4-19.3-8-37.7-25.5-41.2
		C328.7,194,311.7,206.8,308.3,226.1z"/>
	<path class="st4" d="M186.2,226.1c3.4,19.3-8,35.3-25.5,38.8c-17.5,3.5-34.4-7-37.8-26.3c-3.4-19.3,8-37.7,25.5-41.2
		C165.9,194,182.8,206.8,186.2,226.1z"/>
	<path class="st5" d="M334.6,111.3c-17.1-23.2-43.7-38.5-72-39.6c0,0-0.6,0-1.5-0.1l0-1.1c0,0-6.9,0.3-13.9,0.6
		c-7.1-0.3-13.9-0.6-13.9-0.6l0,1.1c-0.9,0-1.5,0.1-1.5,0.1c-28.3,1.1-54.9,16.4-72,39.6c-17.1,23.2-19.4,52.5-18,80.5
		c1,21.2,4.8,55.4,5.8,76.6c27.2,101.7,173.9,103.4,199.2,0c1-21.2,4.8-55.4,5.8-76.6C354,163.8,351.7,134.5,334.6,111.3z"/>
	<path class="st6" d="M160.6,150.3c-1.4,2.9,6.4-26.5,23.5-27c17.8-0.5,128.7,6.2,134.4-1.2c18.8,23.8,31.2,121.5,32.3,121.2
		c5.7-1.1,6.6-51.7,6.6-57.3c0-25.8,7.5-75.6-39.3-106.6c-28.8-19.1-88.2-21-121.3-10.2c-23.1,7.5-45.2,27.1-53.4,50
		c-9,25.1-8.8,44.7-5.8,94.3c0.3,5.4,1,10.8,1.7,16.1c0.5,3.6,1,7.2,1.8,10.7C145.7,259.3,146.2,172.6,160.6,150.3z"/>
	<path class="st6" d="M153.8,124c0.8,2.2,3.6,12.9,40.8,25.5c37.2,12.6,72.9,12.9,70.2,12.3c-2.7-0.6-10.8-7.8-10.8-7.8
		s26.7,8.7,46.2,6.9c19.5-1.8,33.6-12.9,31.2-12.9c-2.4,0-13.2-4.8-13.2-4.8s24.3-11.7,38.4-27.9c14.1-16.2,18.6-31.5,16.8-30
		c-1.8,1.5-13.8,7.5-12,5.4c1.8-2.1,3.3-26.1,3.3-26.1s-10.5,7.2-13.5,7.8c-3,0.6,3.3-19.8,3.3-19.8s-28.8,5.4-45.3,3
		c-16.5-2.4-25.8-7.2-50.1-8.4c-24.3-1.2-39,6-39,6l3.9-7.8c0,0-34.1,9.7-43.1,16.5c-9,6.8-17.4,20.4-17.4,20.4s-8.5-2.7-15.4-2.4
		c-6.9,0.3-9.9,1.9-9.9,1.9l15.6,5.1c0,0-7.1,2-12.3,6.6c-5.3,4.7-9.6,10.1-7.4,8.7c2.3-1.3,15.2-2.6,15.2-2.6L153.8,124z"/>
	<path class="st7" d="M222.8,379.4c1.3,0,8.4,1.1,8.4,1.1l5,18.2l-18-8.3L222.8,379.4z"/>
	<path class="st8" d="M212,343.8l19.2,36.7c0,0-19.7,19.4-19.4,18.5c0.3-0.8-8.8-35.1-8.2-36.9C204.3,360.4,212,343.8,212,343.8z"/>
	<path class="st7" d="M272.2,379.4c-1.3,0-8.4,1.1-8.4,1.1l-5,18.2l18-8.3L272.2,379.4z"/>
	<path class="st8" d="M282.9,343.8l-19.2,36.7c0,0,19.7,19.4,19.4,18.5c-0.3-0.8,8.8-35.1,8.2-36.9
		C290.7,360.4,282.9,343.8,282.9,343.8z"/>
	<path class="st9" d="M154.6,198.9c-4.4,4.9-6.4,9.2-8,14.7c0,0-4.1,0.2-5.4,1.3c-1.4,1.2-1.4,5.4-0.2,6.3c1.3,0.9,5.4,0.8,5.4,0.8
		c0,29.4,15.8,50.3,46.1,49.3c14.9-0.5,26.7-6.9,35.2-21.4c4.8-8.1,8.1-18.3,8.9-23.5c0.8-5.3,1.4-7.9,2.6-8.6c1-0.6,6.1-0.7,8-0.7
		c1.9,0,7,0.1,8,0.7c1.3,0.8,1.9,3.4,2.6,8.6c0.8,5.3,4.1,15.4,8.9,23.5c8.5,14.5,20.3,20.9,35.2,21.4c30.2,1.1,46.1-19.9,46.1-49.3
		c0,0,4.1,0.1,5.4-0.8c1.3-0.9,1.2-5.1-0.2-6.3c-1.4-1.2-5.4-1.3-5.4-1.3c-1.6-5.6-3.5-9.8-8-14.7c-4.1-4.6-14.1-8-26.2-8.9
		c-30.2-2.4-100.1-2.2-130.3-0.3C170,190.5,159,194,154.6,198.9L154.6,198.9z M239,211.7L239,211.7c-0.7,0.6-1.8-1.3-1.9-1.9
		c-1-5.8,0.3-14.2-7.8-15.7h35.7c-8.2,1.5-6.8,9.9-7.8,15.7c-0.1,0.6-1.1,2.4-1.9,1.9C254.6,211.1,239.8,211.1,239,211.7L239,211.7z
		 M265.2,198.1L265.2,198.1c3.9-3,12.7-4.2,17.5-4.5c13.5-0.9,46.3-1.6,56,10.3c3.6,4.4,5.6,9.6,5.8,14.9c0.2,5.3-0.4,13.3-2,19.1
		c-5.7,21.3-19.9,31.1-40.8,30c-27.8-1.5-41.6-31.8-40.6-56.6C261.5,205.2,262.3,200.3,265.2,198.1L265.2,198.1z M229.2,198.1
		L229.2,198.1c2.9,2.3,3.8,7.1,4,13.2c1,24.8-12.8,55.1-40.6,56.6c-20.9,1.1-35.1-8.7-40.8-30c-1.6-5.8-2.3-13.8-2-19.1
		c0.2-5.3,2.2-10.5,5.8-14.9c9.7-11.8,42.5-11.1,56-10.3C216.4,193.9,225.3,195,229.2,198.1z"/>
	<path class="st10" d="M155,203.3c-3.7,4.5-5.7,9.8-5.9,15.2c-0.3,5.4,0.4,13.5,2,19.4c3.2,11.7,8.8,20.1,16.8,25
		c6.7,4.2,15,6,24.7,5.5c28.2-1.5,42.3-32.4,41.3-57.6c-0.3-6.1-1.1-11.1-4.1-13.4c-4-3.1-13-4.3-17.8-4.6
		c-11.2-0.7-35.3-1.3-49.2,4.9C159.6,199.3,156.9,201.1,155,203.3z"/>
	<path class="st10" d="M260.7,211c-1,25.1,13,55.7,41,57.2c9.7,0.5,18-1.3,24.6-5.5c7.9-4.9,13.5-13.2,16.6-24.8
		c1.6-5.9,2.3-14,2-19.3c-0.3-5.3-2.2-10.6-5.9-15.1c-1.8-2.2-4.5-4-7.7-5.5c-13.8-6.2-37.8-5.6-48.9-4.9
		c-4.8,0.3-13.8,1.5-17.7,4.6C261.9,200,261,204.9,260.7,211z"/>
	<path class="st11" d="M288.8,297.1c-7.5,9.6-21.4,16.1-37.2,16.1c-15.8,0-29.6-6.5-37.2-16.1c9.2,6.6,22,13.3,36.7,13.3
		C266,310.5,279.7,303.8,288.8,297.1z"/>
	<path class="st12" d="M232.9,285.9c-0.1,0-0.1-0.1,0-0.2c0-0.4,0.2-0.8,0.7-1.2c3.4-6.5,10-25.4,13-46.2c3.3,0.2-3.3,35.4-6.2,43.8
		c2.9-0.5,6.4-0.8,10.2-0.8c9.8,0,17.7,2,17.7,4.4c0,2.4-7.9,4.4-17.7,4.4C241.1,290.1,233.4,288.2,232.9,285.9z"/>
</g>
</svg>
